<svg xmlns="http://www.w3.org/2000/svg" width="54.97" height="54.97" viewBox="0 0 54.97 54.97"><defs><style>.a{fill:#fff;}</style></defs><g transform="translate(0 0)"><path class="a" d="M415.206,65.251h3.221v3.221h-3.221Z" transform="translate(-370.628 -58.245)"/><path class="a" d="M50.959,310.615a8.371,8.371,0,0,0-6.328-1.248l-8.68,1.823a5.189,5.189,0,0,0-3.156-5.911L23.507,301.6a16.653,16.653,0,0,0-11.576-.249L0,305.534v15.948L13.658,316.9l16.622,6.25,24.69-5.09-.419-2.087a8.372,8.372,0,0,0-3.592-5.357ZM30.542,319.8,13.72,313.476,3.226,317v-9.175l9.766-3.423a13.421,13.421,0,0,1,9.327.2l9.294,3.678a2.058,2.058,0,0,1,.031,3.737,1.839,1.839,0,0,1-1.451.047l-11.249-4.408-1.177,3,11.249,4.408a5.027,5.027,0,0,0,2.768.266l.005.026,13.484-2.831a5.2,5.2,0,0,1,5.793,3.041Z" transform="translate(0 -268.179)"/><path class="a" d="M194.328,30.183a5.754,5.754,0,0,0,5.681-1.456l8.258-8.258,2.842,2.842,8.492-8.492a7.807,7.807,0,0,0,0-11.041L218.11,2.287a7.807,7.807,0,0,0-11.041,0l-8.492,8.492,2.842,2.842L186.995,28.045Zm8.8-19.4,6.214-6.214a4.587,4.587,0,0,1,6.486,0l1.491,1.491a4.586,4.586,0,0,1,0,6.486l-6.214,6.214Zm2.858,7.413-8.258,8.258a2.534,2.534,0,0,1-2.5.641l-2.11-.615L203.7,15.9Z" transform="translate(-166.919)"/></g></svg>