<svg xmlns="http://www.w3.org/2000/svg" width="65.169" height="58.759" viewBox="0 0 65.169 58.759"><defs><style>.a{fill:#fff;}</style></defs><g transform="translate(-28 -40)"><path class="a" d="M229.068,146.137a1.068,1.068,0,1,0,0,2.137h1.068v1.068a1.068,1.068,0,0,0,2.137,0v-1.068h1.068a1.068,1.068,0,0,0,0-2.137h-1.068v-1.068a1.068,1.068,0,0,0-2.137,0v1.068Z" transform="translate(-146.582 -76.223)"/><path class="a" d="M175.205,69.068v1.068h-2.137A1.068,1.068,0,0,0,172,71.205V74.41a1.068,1.068,0,0,0,1.068,1.068h2.137v1.068h-2.137a1.068,1.068,0,1,0,0,2.137h2.137v1.068a1.068,1.068,0,1,0,2.137,0V78.684h2.137a1.068,1.068,0,0,0,1.068-1.068V74.41a1.068,1.068,0,0,0-1.068-1.068h-2.137V72.273h2.137a1.068,1.068,0,1,0,0-2.137h-2.137V69.068a1.068,1.068,0,1,0-2.137,0Zm3.205,6.41v1.068h-1.068V75.478Zm-3.205-2.137h-1.068V72.273h1.068Z" transform="translate(-105.539 -20.522)"/><path class="a" d="M92.1,184.572H80.84a6.423,6.423,0,0,0,.823-1.141l5.1-.008a1.068,1.068,0,0,0,1.066-1.068V174.9a5.508,5.508,0,0,0-4.818-5.311c-.826-.049-3.1-1.4-5.3-2.713-4.881-2.9-11.565-6.88-17.656-6.88H46.09a12.14,12.14,0,0,0-8.054,3.054l-6.47,5.729a1.068,1.068,0,0,0-.36.8v10.643a1.067,1.067,0,0,0,.462.88l3.205,2.209a1.067,1.067,0,0,0,.606.189h0l3,0a6.443,6.443,0,0,0,.781,1.073H29.068a1.068,1.068,0,1,0,0,2.137H92.1a1.068,1.068,0,1,0,0-2.137Zm-42.52-1.091,20.918-.033a6.425,6.425,0,0,0,.812,1.124H48.79A6.432,6.432,0,0,0,49.581,183.482ZM71.8,180.3a4.273,4.273,0,1,1,4.273,4.273A4.278,4.278,0,0,1,71.8,180.3Zm8.239-9.615H63.256v-5.342h7.372c2.151,1.095,4.2,2.31,5.987,3.375C77.923,169.5,79.058,170.168,80.041,170.683ZM48.3,165.342h12.82v5.342H48.3Zm11.752-3.205a17.707,17.707,0,0,1,5.629,1.068H41.6a10,10,0,0,1,4.49-1.068Zm-21.376,3.205h7.488v5.342H33.342v-.62ZM35.81,181.366l-2.468-1.7v-3.64h2.137a1.068,1.068,0,1,0,0-2.137H33.342V172.82H84.853a3.634,3.634,0,0,1,.635,1.068H83.554a1.068,1.068,0,1,0,0,2.137h2.137v5.262l-3.29.006a6.41,6.41,0,1,0-12.647.02l-19.411.031a6.41,6.41,0,1,0-12.631.02Zm3.942-1.068a4.273,4.273,0,1,1,4.273,4.273A4.278,4.278,0,0,1,39.752,180.3Z" transform="translate(0 -87.949)"/><path class="a" d="M199.205,224a3.205,3.205,0,1,0,3.205,3.205A3.209,3.209,0,0,0,199.205,224Zm0,4.273a1.068,1.068,0,1,1,1.068-1.068A1.069,1.069,0,0,1,199.205,228.273Z" transform="translate(-123.129 -134.856)"/><path class="a" d="M75.205,46.41A3.205,3.205,0,1,0,72,43.205,3.209,3.209,0,0,0,75.205,46.41Zm0-4.273a1.068,1.068,0,1,1-1.068,1.068A1.07,1.07,0,0,1,75.205,42.137Z" transform="translate(-32.248)"/><path class="a" d="M166.474,137.865a1.142,1.142,0,1,0,1.142-1.142A1.142,1.142,0,0,0,166.474,137.865Z" transform="translate(-101.489 -70.889)"/><path class="a" d="M90.474,117.865a1.142,1.142,0,1,0,1.142-1.142A1.142,1.142,0,0,0,90.474,117.865Z" transform="translate(-45.788 -56.231)"/><path class="a" d="M79.205,224a3.205,3.205,0,1,0,3.205,3.205A3.209,3.209,0,0,0,79.205,224Zm0,4.273a1.068,1.068,0,1,1,1.068-1.068A1.07,1.07,0,0,1,79.205,228.273Z" transform="translate(-35.18 -134.856)"/><path class="a" d="M98.29,60h-23.5a1.067,1.067,0,0,0-.811.373l-6.091,7.106H61.436a10.344,10.344,0,0,0-10.3,10.136l-.119,7.625a1.069,1.069,0,0,0,1.052,1.085h.017a1.068,1.068,0,0,0,1.068-1.052l.119-7.625a8.2,8.2,0,0,1,8.16-8.033h6.448l6.091,7.106a1.067,1.067,0,0,0,.811.373h23.5a1.068,1.068,0,0,0,1.068-1.068V61.068A1.068,1.068,0,0,0,98.29,60ZM97.221,74.957H75.277L70.7,69.615h2.148a3.205,3.205,0,1,0,0-2.137H70.7l4.579-5.342H97.221Zm-22.435-6.41a1.068,1.068,0,1,1,1.068,1.068A1.068,1.068,0,0,1,74.786,68.547Z" transform="translate(-16.872 -14.658)"/></g></svg>