<svg xmlns="http://www.w3.org/2000/svg" width="22.172" height="15.243" viewBox="0 0 22.172 15.243"><defs><style>.a{fill:#585858;}</style></defs><g transform="translate(0 -80)"><path class="a" d="M19.747,80H2.425A2.428,2.428,0,0,0,0,82.425V92.818a2.428,2.428,0,0,0,2.425,2.425H19.747a2.428,2.428,0,0,0,2.425-2.425V82.425A2.428,2.428,0,0,0,19.747,80ZM2.425,81.386H19.747a1.041,1.041,0,0,1,1.039,1.039v1.386H1.386V82.425A1.041,1.041,0,0,1,2.425,81.386ZM19.747,93.857H2.425a1.041,1.041,0,0,1-1.039-1.039V85.2h19.4v7.622A1.041,1.041,0,0,1,19.747,93.857Z" transform="translate(0 0)"/><path class="a" d="M81.386,306.079h-.693a.693.693,0,0,1-.693-.693v-.693a.693.693,0,0,1,.693-.693h.693a.693.693,0,0,1,.693.693v.693A.693.693,0,0,1,81.386,306.079Z" transform="translate(-76.536 -214.3)"/></g></svg>