<svg xmlns="http://www.w3.org/2000/svg" width="25.855" height="25.859" viewBox="0 0 25.855 25.859"><defs><style>.a{fill:#fff;}</style></defs><path class="a" d="M27.83,11.981H14.054a2.372,2.372,0,0,0-2.369,2.369v9.592A2.367,2.367,0,0,0,14.054,26.3h7.883a.679.679,0,0,1,.472.2l3.916,3.612c.218.211.578.124.578-.18V26.789c0-.373.236-.491.609-.491h.062a2.588,2.588,0,0,0,2.617-2.362V14.35A2.359,2.359,0,0,0,27.83,11.981Z" transform="translate(-4.338 -4.372)"/><path class="a" d="M11.233,9.461H22.261V5.4a2.027,2.027,0,0,0-2.027-2.027H5.4A2.027,2.027,0,0,0,3.375,5.4v10.27A2.027,2.027,0,0,0,5.4,17.7H9.2v-6.21A2.036,2.036,0,0,1,11.233,9.461Z" transform="translate(-3.375 -3.375)"/></svg>