<svg xmlns="http://www.w3.org/2000/svg" width="54" height="54" viewBox="0 0 54 54"><defs><style>.a{fill:#b5b5b5;}</style></defs><path class="a" d="M27,.563a27,27,0,1,0,27,27A27,27,0,0,0,27,.563Zm0,10.452a9.581,9.581,0,1,1-9.581,9.581A9.581,9.581,0,0,1,27,11.014Zm0,37.452a20.863,20.863,0,0,1-15.95-7.425,12.138,12.138,0,0,1,10.724-6.51,2.664,2.664,0,0,1,.773.12A14.415,14.415,0,0,0,27,35.4a14.36,14.36,0,0,0,4.453-.751,2.664,2.664,0,0,1,.773-.12,12.138,12.138,0,0,1,10.724,6.51A20.863,20.863,0,0,1,27,48.466Z" transform="translate(0 -0.563)"/></svg>