<svg xmlns="http://www.w3.org/2000/svg" width="21.189" height="24.109" viewBox="0 0 21.189 24.109"><defs><style>.a{fill:#585858;}</style></defs><g transform="translate(-31)"><g transform="translate(31 4.285)"><g transform="translate(0)"><path class="a" d="M51.648,101.642a2.118,2.118,0,0,0-1.578-3.532H45.958a13.7,13.7,0,0,0,.581-3.579v-.706A2.829,2.829,0,0,0,43.714,91h-.706a.706.706,0,0,0-.685.535l-.385,1.539c-.539,2.156-2.251,4.534-4.022,4.966A2.122,2.122,0,0,0,35.944,96.7H31.706A.707.707,0,0,0,31,97.4v12.714a.707.707,0,0,0,.706.706h4.238a2.121,2.121,0,0,0,1.913-1.208l2.427.809a7.752,7.752,0,0,0,2.457.4h5.917a2.12,2.12,0,0,0,1.97-2.9,2.118,2.118,0,0,0,1.02-3.457,2.115,2.115,0,0,0,0-2.825Zm-15,7.063a.707.707,0,0,1-.706.706H32.413V98.11h3.532a.707.707,0,0,1,.706.706Zm12.007-6.357h1.413a.706.706,0,1,1,0,1.413H48.658a.706.706,0,0,0,0,1.413h1.413a.706.706,0,0,1,0,1.413H48.658a.706.706,0,0,0,0,1.413.706.706,0,1,1,0,1.413H42.741a6.343,6.343,0,0,1-2.011-.326l-2.667-.889v-8.74A5.692,5.692,0,0,0,41.235,97.4a10.306,10.306,0,0,0,2.073-3.978l.251-1h.155a1.414,1.414,0,0,1,1.413,1.413v.706a11.177,11.177,0,0,1-.676,3.579H43.007a.706.706,0,0,0,0,1.413h7.063a.706.706,0,1,1,0,1.413H48.658a.706.706,0,0,0,0,1.413Z" transform="translate(-31 -91)"/></g></g><g transform="translate(33.908 19.949)"><g transform="translate(0 0)"><circle class="a" cx="0.623" cy="0.623" r="0.623"/></g></g><g transform="translate(43.714)"><path class="a" d="M301.706,0A.706.706,0,0,0,301,.706v1.46a.706.706,0,0,0,1.413,0V.706A.706.706,0,0,0,301.706,0Z" transform="translate(-301)"/></g><g transform="translate(39.219 1.909)"><path class="a" d="M207.745,41.747l-1-1a.706.706,0,1,0-1,1l1,1a.706.706,0,0,0,1-1Z" transform="translate(-205.54 -40.542)"/></g><g transform="translate(47.21 1.909)"><path class="a" d="M377.451,40.748a.706.706,0,0,0-1,0l-1,1a.706.706,0,0,0,1,1l1-1A.706.706,0,0,0,377.451,40.748Z" transform="translate(-375.247 -40.542)"/></g></g></svg>