<svg xmlns="http://www.w3.org/2000/svg" width="23" height="26.152" viewBox="0 0 23 26.152"><defs><style>.a{fill:#0d3558;}</style></defs><g transform="translate(-30.849)"><g transform="translate(30.849 0.975)"><g transform="translate(0)"><path class="a" d="M52.1,28.435,43.438,19.77a2.3,2.3,0,0,0-3.53,2.911l-.012.06a16.033,16.033,0,0,1-4.4,8.219l-3.975,3.975a2.3,2.3,0,0,0,0,3.25l2.166,2.166a2.3,2.3,0,0,0,3.25,0l.542-.542L41.272,43.6a2.3,2.3,0,0,0,3.25-3.25L42.9,38.726l.542-.542a2.3,2.3,0,0,0,0-3.25l-.368-.368a16.036,16.036,0,0,1,6.063-2.589l.061-.012a2.3,2.3,0,0,0,2.91-.28h0A2.3,2.3,0,0,0,52.1,28.435ZM35.856,39.267a.766.766,0,0,1-1.083,0L32.606,37.1a.765.765,0,0,1,0-1.083L36.4,32.226l3.25,3.25Zm7.582,2.166a.766.766,0,1,1-1.083,1.083l-3.791-3.791,1.083-1.083ZM40.73,36.559c.23-.23.575-.583,1.119-1.048l.506.506a.765.765,0,0,1,0,1.083l-.542.542Zm.033-2.134-3.315-3.315a17.54,17.54,0,0,0,3.729-7.1L47.866,30.7A17.539,17.539,0,0,0,40.763,34.425ZM51.021,30.6a.766.766,0,0,1-1.083,0l-8.666-8.666a.766.766,0,0,1,1.083-1.083l8.666,8.666A.767.767,0,0,1,51.021,30.6Z" transform="translate(-30.849 -19.098)"/></g></g><g transform="translate(34.548 16.588)"><g transform="translate(0)"><path class="a" d="M105.657,324.986a.766.766,0,0,0-1.083,0l-1.083,1.083a.766.766,0,0,0,1.083,1.083l1.083-1.083A.766.766,0,0,0,105.657,324.986Z" transform="translate(-103.266 -324.762)"/></g></g><g transform="translate(46.19)"><path class="a" d="M331.96,0a.766.766,0,0,0-.766.766V2.3a.766.766,0,0,0,1.532,0V.766A.766.766,0,0,0,331.96,0Z" transform="translate(-331.194)"/></g><g transform="translate(50.786 6.128)"><path class="a" d="M423.467,119.966h-1.532a.766.766,0,0,0,0,1.532h1.532a.766.766,0,1,0,0-1.532Z" transform="translate(-421.169 -119.966)"/></g><g transform="translate(49.254 1.532)"><g transform="translate(0)"><path class="a" d="M394.017,30.215a.766.766,0,0,0-1.083,0L391.4,31.747a.766.766,0,1,0,1.083,1.083l1.532-1.532A.766.766,0,0,0,394.017,30.215Z" transform="translate(-391.178 -29.991)"/></g></g></g></svg>