<svg xmlns="http://www.w3.org/2000/svg" width="21.188" height="21.188" viewBox="0 0 21.188 21.188"><defs><style>.a{fill:#585858;}</style></defs><path class="a" d="M10.594,0A10.6,10.6,0,0,0,1.4,15.868L.04,20.107a.828.828,0,0,0,1.042,1.042L5.32,19.784A10.595,10.595,0,1,0,10.594,0Zm0,19.533a8.913,8.913,0,0,1-4.731-1.354.828.828,0,0,0-.693-.086l-3.06.985.985-3.06a.828.828,0,0,0-.086-.693,8.939,8.939,0,1,1,7.585,4.207Zm1.035-8.939A1.035,1.035,0,1,1,10.594,9.56,1.035,1.035,0,0,1,11.629,10.594Zm4.138,0A1.035,1.035,0,1,1,14.733,9.56,1.035,1.035,0,0,1,15.767,10.594Zm-8.277,0A1.035,1.035,0,1,1,6.456,9.56,1.035,1.035,0,0,1,7.49,10.594Zm0,0"/></svg>