<svg xmlns="http://www.w3.org/2000/svg" width="71.746" height="64.499" viewBox="0 0 71.746 64.499"><defs><style>.a{fill:#fff;}</style></defs><g transform="translate(0 -19.9)"><g transform="translate(0 19.9)"><path class="a" d="M70.089,47.4l-3.879-.364a20.178,20.178,0,0,0-1.894-4.48l2.458-2.968a1.817,1.817,0,0,0-.109-2.44l-4.844-4.9a1.821,1.821,0,0,0-2.458-.127L56.4,34.577a20.929,20.929,0,0,0-4.461-1.894l-.364-3.86a1.821,1.821,0,0,0-1.821-1.639H43.7V21.721a1.821,1.821,0,1,0-3.642,0v9.1H33.178a9.48,9.48,0,0,0-7.5,3.715l-7.5,9.888L5.554,47.87A7.545,7.545,0,0,0,0,55.136v4.826a7.55,7.55,0,0,0,7.557,7.5H8.54a9.517,9.517,0,0,0,18.374,0H40.061V82.578a1.821,1.821,0,0,0,3.642,0v-4.37h6.046A1.822,1.822,0,0,0,51.57,76.55l.364-3.879a21.012,21.012,0,0,0,4.48-1.876l2.968,2.458a1.816,1.816,0,0,0,2.44-.109l4.9-4.9a1.84,1.84,0,0,0,.109-2.458L64.371,62.82a21.331,21.331,0,0,0,1.894-4.461l3.824-.364a1.837,1.837,0,0,0,1.657-1.821V49.2A1.833,1.833,0,0,0,70.089,47.4ZM17.718,70.869A5.882,5.882,0,1,1,23.6,64.987,5.891,5.891,0,0,1,17.718,70.869ZM40.061,63.8H27.169a9.52,9.52,0,0,0-18.9,0H7.539a3.886,3.886,0,0,1-3.915-3.86V55.136A3.934,3.934,0,0,1,6.5,51.385l13.22-3.606a1.777,1.777,0,0,0,.965-.656l7.9-10.361A5.787,5.787,0,0,1,33.2,34.486h6.865ZM43.7,44.957a8.142,8.142,0,1,1,0,15.46ZM68.1,54.5h0l-3.46.328a1.82,1.82,0,0,0-1.6,1.42,17.26,17.26,0,0,1-2.422,5.718,1.806,1.806,0,0,0,.127,2.149l2.222,2.7L60.42,69.358l-2.7-2.2a1.8,1.8,0,0,0-2.167-.109,16.61,16.61,0,0,1-5.7,2.4,1.8,1.8,0,0,0-1.42,1.6l-.328,3.5H43.7V64.186A11.789,11.789,0,0,0,48.82,41.169a11.555,11.555,0,0,0-5.117,0V30.844h4.389l.346,3.478a1.82,1.82,0,0,0,1.42,1.6,17.608,17.608,0,0,1,5.718,2.4,1.806,1.806,0,0,0,2.149-.127L60.4,35.979l2.513,2.531-2.24,2.713a1.8,1.8,0,0,0-.109,2.167,16.61,16.61,0,0,1,2.4,5.7,1.82,1.82,0,0,0,1.621,1.42l3.514.346Z" transform="translate(0 -19.9)"/></g></g></svg>